<svg width="400" height="400" viewBox="0 0 400 400" fill="none" xmlns="http://www.w3.org/2000/svg">
<path d="M360.001 400H40.0001C18 400 0 382 0 360V40C0 18 18 0 40.0001 0H360.001C382.001 0 400.001 18 400.001 40V360C400.001 382 382.001 400 360.001 400Z" fill="#F2F2F2"/>
<path d="M186.328 87C237.892 87 279.657 107.882 279.657 133.664C279.657 159.446 237.892 180.328 186.328 180.328C134.764 180.328 93 159.446 93 133.664C93 107.882 134.764 87 186.328 87Z" fill="#E6007E"/>
<path d="M93 157.008C93 182.79 134.764 203.672 186.328 203.672C199.277 203.672 211.643 202.388 222.959 199.938C211.876 209.971 203.826 223.154 200.093 238.203L186.328 238.669C134.764 238.669 93 217.787 93 192.006V157.008Z" fill="#E6007E"/>
<path d="M93 215.34C93 241.122 134.764 262.004 186.328 262.004L197.993 261.654C199.043 274.02 202.893 285.335 209.076 295.602L186.328 297.001C134.764 297.001 93 276.119 93 250.338V215.34Z" fill="#E6007E"/>
<path d="M279.656 180.34V157.008C279.656 165.641 274.989 173.69 266.823 180.69L273.823 180.34H279.656Z" fill="#E6007E"/>
<path d="M268 321.76V304.885C256.065 304.885 244.619 300.144 236.18 291.705C227.741 283.266 223 271.82 223 259.886C223 250.661 225.812 242.111 230.537 235.023L242.8 247.286C240.887 251.111 239.875 255.386 239.875 259.886C239.875 267.345 242.838 274.499 248.112 279.773C253.387 285.047 260.541 288.011 268 288.011V271.136L293.312 296.448L268 321.76Z" fill="#3C4797"/>
<path d="M267.999 198V214.875C279.934 214.875 291.38 219.616 299.819 228.055C308.258 236.494 312.999 247.94 312.999 259.875C312.999 269.1 310.187 277.649 305.462 284.737L293.199 272.475C295.112 268.65 296.124 264.375 296.124 259.875C296.124 252.415 293.161 245.262 287.887 239.987C282.612 234.713 275.458 231.75 267.999 231.75V248.625L242.687 223.312L267.999 198Z" fill="#3C4797"/>
</svg>
